<svg width="15" height="15" viewBox="0 0 15 15" fill="none" xmlns="http://www.w3.org/2000/svg">
<path d="M7.5 15C8.06832 15 8.61336 14.8025 9.01523 14.4509C9.41709 14.0992 9.64286 13.6224 9.64286 13.1251H5.35714C5.35714 13.6224 5.58291 14.0992 5.98477 14.4509C6.38663 14.8025 6.93168 15 7.5 15ZM7.5 1.79885L6.64607 1.94978C5.67746 2.12245 4.80678 2.58265 4.18141 3.25248C3.55604 3.9223 3.21439 4.76061 3.21429 5.62551C3.21429 6.21423 3.07071 7.68509 2.7225 9.13344C2.55107 9.85247 2.31964 10.6015 2.01214 11.2502H12.9879C12.6804 10.6015 12.45 9.85341 12.2775 9.13344C11.9293 7.68509 11.7857 6.21423 11.7857 5.62551C11.7854 4.76077 11.4436 3.92268 10.8182 3.25305C10.1929 2.58342 9.32236 2.12336 8.35393 1.95071L7.5 1.79791V1.79885ZM14.1643 11.2502C14.4032 11.6692 14.6796 12.0011 15 12.1877H0C0.320357 12.0011 0.596786 11.6692 0.835714 11.2502C1.8 9.5628 2.14286 6.45047 2.14286 5.62551C2.14286 3.35689 3.98571 1.46324 6.43393 1.03108C6.41897 0.900728 6.43541 0.769084 6.48218 0.644635C6.52895 0.520186 6.60501 0.405695 6.70545 0.308545C6.8059 0.211396 6.9285 0.133745 7.06536 0.0806014C7.20221 0.0274574 7.35027 0 7.5 0C7.64973 0 7.79779 0.0274574 7.93464 0.0806014C8.0715 0.133745 8.1941 0.211396 8.29455 0.308545C8.39499 0.405695 8.47105 0.520186 8.51782 0.644635C8.56459 0.769084 8.58102 0.900728 8.56607 1.03108C9.77709 1.2466 10.8658 1.82168 11.6478 2.65896C12.4297 3.49623 12.857 4.54423 12.8571 5.62551C12.8571 6.45047 13.2 9.5628 14.1643 11.2502Z" fill="black"/>
</svg>
