<svg width="95" height="92" viewBox="0 0 95 92" fill="none" xmlns="http://www.w3.org/2000/svg">
<path d="M70.2604 78.7061C77.1183 78.7061 82.6777 73.3222 82.6777 66.6809C82.6777 60.0396 77.1183 54.6558 70.2604 54.6558C63.4026 54.6558 57.8431 60.0396 57.8431 66.6809C57.8431 73.3222 63.4026 78.7061 70.2604 78.7061Z" fill="#6C74A1" stroke="#6C74A1" stroke-width="1.5" stroke-linecap="round" stroke-linejoin="round"/>
<path d="M68.1902 45.6357H72.3306" stroke="#6C74A1" stroke-width="1.5" stroke-linecap="round" stroke-linejoin="round"/>
<path d="M70.2604 45.6357V54.6556" stroke="#6C74A1" stroke-width="1.5" stroke-linecap="round" stroke-linejoin="round"/>
<path d="M84.1621 50.3853L87.0913 53.2181" stroke="#6C74A1" stroke-width="1.5" stroke-linecap="round" stroke-linejoin="round"/>
<path d="M85.6267 51.7998L79.04 58.1785" stroke="#6C74A1" stroke-width="1.5" stroke-linecap="round" stroke-linejoin="round"/>
<path d="M91.9917 64.676V68.6857" stroke="#6C74A1" stroke-width="1.5" stroke-linecap="round" stroke-linejoin="round"/>
<path d="M91.9917 66.6809H82.6777" stroke="#6C74A1" stroke-width="1.5" stroke-linecap="round" stroke-linejoin="round"/>
<path d="M87.0913 80.1475L84.1621 82.9803" stroke="#6C74A1" stroke-width="1.5" stroke-linecap="round" stroke-linejoin="round"/>
<path d="M85.6267 81.5618L79.04 75.187" stroke="#6C74A1" stroke-width="1.5" stroke-linecap="round" stroke-linejoin="round"/>
<path d="M72.3306 87.7258H68.1902" stroke="#6C74A1" stroke-width="1.5" stroke-linecap="round" stroke-linejoin="round"/>
<path d="M70.2604 87.7259V78.7061" stroke="#6C74A1" stroke-width="1.5" stroke-linecap="round" stroke-linejoin="round"/>
<path d="M56.3587 82.9803L53.4296 80.1475" stroke="#6C74A1" stroke-width="1.5" stroke-linecap="round" stroke-linejoin="round"/>
<path d="M54.8942 81.5618L61.4808 75.187" stroke="#6C74A1" stroke-width="1.5" stroke-linecap="round" stroke-linejoin="round"/>
<path d="M48.5292 68.6857V64.676" stroke="#6C74A1" stroke-width="1.5" stroke-linecap="round" stroke-linejoin="round"/>
<path d="M48.5292 66.6809H57.8431" stroke="#6C74A1" stroke-width="1.5" stroke-linecap="round" stroke-linejoin="round"/>
<path d="M53.4296 53.2181L56.3587 50.3853" stroke="#6C74A1" stroke-width="1.5" stroke-linecap="round" stroke-linejoin="round"/>
<path d="M54.8942 51.7998L61.4808 58.1785" stroke="#6C74A1" stroke-width="1.5" stroke-linecap="round" stroke-linejoin="round"/>
<path d="M14.8833 27.2742V61.7742H32.6958" stroke="black" stroke-width="1.5" stroke-linecap="round" stroke-linejoin="round"/>
<path d="M14.8833 50.2743L25.5273 39.9664C26.0787 39.4321 26.7334 39.0082 27.454 38.719C28.1746 38.4299 28.947 38.281 29.7271 38.281C30.5071 38.281 31.2795 38.4299 32.0001 38.719C32.7207 39.0082 33.3754 39.4321 33.9268 39.9664L36.2266 42.1898C36.8647 42.8077 37.6398 43.2767 38.493 43.5611C39.3463 43.8454 40.2552 43.9377 41.1508 43.8309C42.0464 43.7241 42.9051 43.4211 43.6617 42.9447C44.4182 42.4684 45.0526 41.8313 45.5168 41.0819L46.93 38.7819" stroke="black" stroke-width="1.5" stroke-linecap="round" stroke-linejoin="round"/>
<path d="M35.6646 79.0242H8.9458C7.37108 79.0242 5.86085 78.4184 4.74735 77.34C3.63386 76.2617 3.0083 74.7992 3.0083 73.2742V10.0242C3.0083 8.49918 3.63386 7.03664 4.74735 5.95831C5.86085 4.87997 7.37108 4.27417 8.9458 4.27417H51.0189C52.5925 4.2745 54.1017 4.87977 55.2148 5.957L66.5831 16.9663C67.6955 18.0443 68.3205 19.5057 68.3208 21.0297V30.1492" stroke="black" stroke-width="1.5" stroke-linecap="round" stroke-linejoin="round"/>
</svg>
