<svg width="105" height="108" viewBox="0 0 105 108" fill="none" xmlns="http://www.w3.org/2000/svg">
<path d="M95.3181 101.25H3.44312V6.75" stroke="black" stroke-width="1.5" stroke-linecap="round" stroke-linejoin="round"/>
<path d="M70.7087 28.6876C70.7284 24.9612 69.8249 21.2911 68.0835 18.0234C66.3421 14.7556 63.82 11.9981 60.7553 10.0107C57.6906 8.02339 54.1843 6.8718 50.5669 6.66457C46.9496 6.45734 43.3406 7.20131 40.0803 8.8263C36.82 10.4513 34.0158 12.9037 31.9324 15.9523C29.8489 19.0009 28.5548 22.5452 28.1721 26.2508C27.7894 29.9564 28.3307 33.7011 29.745 37.1319C31.1593 40.5627 33.3999 43.5663 36.2555 45.8596V47.2501C36.2555 49.0403 36.947 50.7572 38.1777 52.0231C39.4084 53.2889 41.0776 54.0001 42.8181 54.0001H55.9431C57.6835 54.0001 59.3527 53.2889 60.5834 52.0231C61.8141 50.7572 62.5056 49.0403 62.5056 47.2501V45.8596C65.0523 43.8272 67.1148 41.2242 68.5363 38.2486C69.9578 35.2729 70.7007 32.003 70.7087 28.6876Z" fill="#6C74A1" stroke="#6C74A1" stroke-width="1.5" stroke-linecap="round" stroke-linejoin="round"/>
<path d="M41.1775 28.6875C41.3931 28.6869 41.6067 28.7302 41.806 28.8148C42.0053 28.8993 42.1864 29.0236 42.3389 29.1804C42.4913 29.3373 42.6122 29.5235 42.6944 29.7285C42.7767 29.9335 42.8187 30.1532 42.8181 30.375" stroke="black" stroke-width="1.5" stroke-linecap="round" stroke-linejoin="round"/>
<path d="M39.5369 30.375C39.5369 29.9274 39.7097 29.4982 40.0174 29.1818C40.3251 28.8653 40.7424 28.6875 41.1775 28.6875" stroke="black" stroke-width="1.5" stroke-linecap="round" stroke-linejoin="round"/>
<path d="M41.1775 32.0625C40.7424 32.0625 40.3251 31.8847 40.0174 31.5682C39.7097 31.2518 39.5369 30.8226 39.5369 30.375" stroke="black" stroke-width="1.5" stroke-linecap="round" stroke-linejoin="round"/>
<path d="M42.8181 30.375C42.8187 30.5968 42.7767 30.8165 42.6944 31.0215C42.6122 31.2265 42.4913 31.4127 42.3389 31.5696C42.1864 31.7264 42.0053 31.8507 41.806 31.9353C41.6067 32.0199 41.3931 32.0631 41.1775 32.0625" stroke="black" stroke-width="1.5" stroke-linecap="round" stroke-linejoin="round"/>
<path d="M57.5837 28.6875C57.7994 28.6869 58.013 28.7302 58.2123 28.8148C58.4116 28.8993 58.5927 29.0236 58.7451 29.1804C58.8976 29.3373 59.0184 29.5235 59.1007 29.7285C59.1829 29.9335 59.2249 30.1532 59.2244 30.375" stroke="black" stroke-width="1.5" stroke-linecap="round" stroke-linejoin="round"/>
<path d="M55.9431 30.375C55.9431 29.9274 56.116 29.4982 56.4236 29.1818C56.7313 28.8653 57.1486 28.6875 57.5837 28.6875" stroke="black" stroke-width="1.5" stroke-linecap="round" stroke-linejoin="round"/>
<path d="M57.5837 32.0625C57.1486 32.0625 56.7313 31.8847 56.4236 31.5682C56.116 31.2518 55.9431 30.8226 55.9431 30.375" stroke="black" stroke-width="1.5" stroke-linecap="round" stroke-linejoin="round"/>
<path d="M59.2244 30.375C59.2249 30.5968 59.1829 30.8165 59.1007 31.0215C59.0184 31.2265 58.8976 31.4127 58.7451 31.5696C58.5927 31.7264 58.4116 31.8507 58.2123 31.9353C58.013 32.0199 57.7994 32.0631 57.5837 32.0625" stroke="black" stroke-width="1.5" stroke-linecap="round" stroke-linejoin="round"/>
<path d="M49.3806 47.25V54" stroke="black" stroke-width="1.5" stroke-linecap="round" stroke-linejoin="round"/>
<path d="M91.0962 68.553L101.557 79.3125L91.0962 90.072" stroke="black" stroke-width="1.5" stroke-linecap="round" stroke-linejoin="round"/>
<path d="M3.44312 79.3126H5.63061C12.8246 79.3116 19.9198 77.5892 26.355 74.2816L36.9512 68.8501C40.8109 66.8644 45.0672 65.8306 49.3828 65.8306C53.6984 65.8306 57.9547 66.8644 61.8144 68.8501L72.4106 74.2996C78.8445 77.6066 85.9381 79.3289 93.1306 79.3306H101.557" stroke="black" stroke-width="1.5" stroke-linecap="round" stroke-linejoin="round"/>
</svg>
