<svg width="97" height="94" viewBox="0 0 97 94" fill="none" xmlns="http://www.w3.org/2000/svg">
<path d="M87.9265 88.125H3.05151V5.875" stroke="black" stroke-width="1.5" stroke-linecap="round" stroke-linejoin="round"/>
<path d="M63.6765 23.5C63.6765 22.4612 63.2507 21.465 62.4927 20.7305C61.7348 19.996 60.7068 19.5833 59.6348 19.5833H49.5307V9.79167C49.5307 8.7529 49.1049 7.75668 48.3469 7.02216C47.5889 6.28765 46.5609 5.875 45.489 5.875H39.4265C38.3546 5.875 37.3266 6.28765 36.5686 7.02216C35.8107 7.75668 35.3848 8.7529 35.3848 9.79167V19.5833H25.2807C24.2088 19.5833 23.1807 19.996 22.4228 20.7305C21.6648 21.465 21.239 22.4612 21.239 23.5V29.375C21.239 30.4138 21.6648 31.41 22.4228 32.1445C23.1807 32.879 24.2088 33.2917 25.2807 33.2917H35.3848V43.0833C35.3848 44.1221 35.8107 45.1183 36.5686 45.8528C37.3266 46.5874 38.3546 47 39.4265 47H45.489C46.5609 47 47.5889 46.5874 48.3469 45.8528C49.1049 45.1183 49.5307 44.1221 49.5307 43.0833V33.2917H59.6348C60.7068 33.2917 61.7348 32.879 62.4927 32.1445C63.2507 31.41 63.6765 30.4138 63.6765 29.375V23.5Z" fill="#F49595" stroke="black" stroke-width="1.5" stroke-linecap="round" stroke-linejoin="round"/>
<path d="M3.05151 76.422H13.964C49.9348 76.422 78.8934 63.1563 86.5321 26.4375" stroke="black" stroke-width="1.5" stroke-linecap="round" stroke-linejoin="round"/>
<path d="M75.0577 33.6128L86.5442 26.4375L93.9485 37.5687" stroke="black" stroke-width="1.5" stroke-linecap="round" stroke-linejoin="round"/>
</svg>
