<svg width="87" height="85" viewBox="0 0 87 85" fill="none" xmlns="http://www.w3.org/2000/svg">
<path d="M27.2889 70.0436C34.7245 70.0436 40.7522 64.1544 40.7522 56.8898C40.7522 49.6252 34.7245 43.7361 27.2889 43.7361C19.8534 43.7361 13.8257 49.6252 13.8257 56.8898C13.8257 64.1544 19.8534 70.0436 27.2889 70.0436Z" fill="#374B43" stroke="#374B43" stroke-width="1.5" stroke-linecap="round" stroke-linejoin="round"/>
<path d="M25.0452 33.8689H29.5329" stroke="#374B43" stroke-width="1.5" stroke-linecap="round" stroke-linejoin="round"/>
<path d="M27.2891 33.8689V43.736" stroke="#374B43" stroke-width="1.5" stroke-linecap="round" stroke-linejoin="round"/>
<path d="M42.3655 39.061L45.5374 42.1635" stroke="#374B43" stroke-width="1.5" stroke-linecap="round" stroke-linejoin="round"/>
<path d="M43.9494 40.6123L36.8118 47.5894" stroke="#374B43" stroke-width="1.5" stroke-linecap="round" stroke-linejoin="round"/>
<path d="M50.8516 54.6975V59.0821" stroke="#374B43" stroke-width="1.5" stroke-linecap="round" stroke-linejoin="round"/>
<path d="M50.8515 56.8899H40.7559" stroke="#374B43" stroke-width="1.5" stroke-linecap="round" stroke-linejoin="round"/>
<path d="M45.5374 71.6196L42.3655 74.7186" stroke="#374B43" stroke-width="1.5" stroke-linecap="round" stroke-linejoin="round"/>
<path d="M43.9494 73.1674L36.8118 66.1938" stroke="#374B43" stroke-width="1.5" stroke-linecap="round" stroke-linejoin="round"/>
<path d="M29.5329 79.9106H25.0452" stroke="#374B43" stroke-width="1.5" stroke-linecap="round" stroke-linejoin="round"/>
<path d="M27.2891 79.9105V70.0435" stroke="#374B43" stroke-width="1.5" stroke-linecap="round" stroke-linejoin="round"/>
<path d="M12.2163 74.7186L9.04077 71.6196" stroke="#374B43" stroke-width="1.5" stroke-linecap="round" stroke-linejoin="round"/>
<path d="M10.6284 73.1674L17.7697 66.1938" stroke="#374B43" stroke-width="1.5" stroke-linecap="round" stroke-linejoin="round"/>
<path d="M3.72656 59.0821V54.6975" stroke="#374B43" stroke-width="1.5" stroke-linecap="round" stroke-linejoin="round"/>
<path d="M3.72656 56.8899H13.8258" stroke="#374B43" stroke-width="1.5" stroke-linecap="round" stroke-linejoin="round"/>
<path d="M9.04077 42.1635L12.2163 39.061" stroke="#374B43" stroke-width="1.5" stroke-linecap="round" stroke-linejoin="round"/>
<path d="M10.6284 40.6123L17.7697 47.5894" stroke="#374B43" stroke-width="1.5" stroke-linecap="round" stroke-linejoin="round"/>
<path d="M66.5116 32.4205C71.9451 32.4205 76.3498 28.117 76.3498 22.8084C76.3498 17.4998 71.9451 13.1963 66.5116 13.1963C61.0781 13.1963 56.6733 17.4998 56.6733 22.8084C56.6733 28.117 61.0781 32.4205 66.5116 32.4205Z" fill="#374B43" stroke="#374B43" stroke-width="1.5" stroke-linecap="round" stroke-linejoin="round"/>
<path d="M64.873 5.98535H68.1537" stroke="#374B43" stroke-width="1.5" stroke-linecap="round" stroke-linejoin="round"/>
<path d="M66.5115 5.98535V13.1926" stroke="#374B43" stroke-width="1.5" stroke-linecap="round" stroke-linejoin="round"/>
<path d="M77.5278 9.77856L79.8478 12.0452" stroke="#374B43" stroke-width="1.5" stroke-linecap="round" stroke-linejoin="round"/>
<path d="M78.6878 10.9119L73.4678 16.0083" stroke="#374B43" stroke-width="1.5" stroke-linecap="round" stroke-linejoin="round"/>
<path d="M83.7302 21.2039V24.4091" stroke="#374B43" stroke-width="1.5" stroke-linecap="round" stroke-linejoin="round"/>
<path d="M83.7304 22.8083H76.3499" stroke="#374B43" stroke-width="1.5" stroke-linecap="round" stroke-linejoin="round"/>
<path d="M79.8478 33.5679L77.5278 35.8345" stroke="#374B43" stroke-width="1.5" stroke-linecap="round" stroke-linejoin="round"/>
<path d="M78.6878 34.7012L73.4678 29.6047" stroke="#374B43" stroke-width="1.5" stroke-linecap="round" stroke-linejoin="round"/>
<path d="M68.1537 39.6313H64.873" stroke="#374B43" stroke-width="1.5" stroke-linecap="round" stroke-linejoin="round"/>
<path d="M66.5115 39.6312V32.4204" stroke="#374B43" stroke-width="1.5" stroke-linecap="round" stroke-linejoin="round"/>
<path d="M55.495 35.8345L53.175 33.5679" stroke="#374B43" stroke-width="1.5" stroke-linecap="round" stroke-linejoin="round"/>
<path d="M54.3352 34.7012L59.5552 29.6047" stroke="#374B43" stroke-width="1.5" stroke-linecap="round" stroke-linejoin="round"/>
<path d="M49.2927 24.4091V21.2039" stroke="#374B43" stroke-width="1.5" stroke-linecap="round" stroke-linejoin="round"/>
<path d="M49.2927 22.8083H56.6732" stroke="#374B43" stroke-width="1.5" stroke-linecap="round" stroke-linejoin="round"/>
<path d="M53.175 12.0452L55.495 9.77856" stroke="#374B43" stroke-width="1.5" stroke-linecap="round" stroke-linejoin="round"/>
<path d="M54.3352 10.9119L59.5552 16.0083" stroke="#374B43" stroke-width="1.5" stroke-linecap="round" stroke-linejoin="round"/>
<path d="M9.96143 27.9791V11.6273C9.96143 9.89331 10.6664 8.23036 11.9214 7.00427C13.1763 5.77817 14.8784 5.08936 16.6532 5.08936H33.3862" stroke="black" stroke-width="1.5" stroke-linecap="round" stroke-linejoin="round"/>
<path d="M16.6533 21.4341L9.96153 27.972L3.26978 21.4341" stroke="black" stroke-width="1.5" stroke-linecap="round" stroke-linejoin="round"/>
<path d="M76.3281 51.1311V72.9265C76.3271 74.6602 75.6218 76.3226 74.367 77.5485C73.1123 78.7744 71.4108 79.4635 69.6363 79.4644H60.1533" stroke="black" stroke-width="1.5" stroke-linecap="round" stroke-linejoin="round"/>
<path d="M69.6362 57.669L76.328 51.1311L83.0197 57.669" stroke="black" stroke-width="1.5" stroke-linecap="round" stroke-linejoin="round"/>
</svg>
