<svg width="161" height="111" viewBox="0 0 161 111" fill="none" xmlns="http://www.w3.org/2000/svg">
<path d="M134.86 10.3774C131.841 7.29697 128.255 4.85333 124.309 3.18611C120.362 1.51889 116.132 0.660767 111.861 0.660767C107.589 0.660767 103.359 1.51889 99.4128 3.18611C95.4664 4.85333 91.8809 7.29697 88.8611 10.3774L82.5938 16.7675L76.3266 10.3774C70.2267 4.15802 61.9535 0.66399 53.3269 0.66399C44.7004 0.66399 36.4272 4.15802 30.3273 10.3774C24.2274 16.5969 20.8005 25.0322 20.8005 33.8278C20.8005 42.6234 24.2274 51.0587 30.3273 57.2781L36.5946 63.6682L82.5938 110.569L128.593 63.6682L134.86 57.2781C137.882 54.1991 140.278 50.5433 141.913 46.5196C143.549 42.496 144.39 38.1832 144.39 33.8278C144.39 29.4724 143.549 25.1596 141.913 21.1359C140.278 17.1122 137.882 13.4565 134.86 10.3774Z" fill="url(#paint0_linear_17_162)"/>
<g filter="url(#filter0_b_17_162)">
<path d="M67.1467 80.9785C65.9728 80.9772 64.8198 80.6593 63.8034 80.0564C62.787 79.4536 61.943 78.5871 61.356 77.5439L49.942 56.4901L42.6451 67.7211C42.0171 68.6503 41.1753 69.4061 40.1943 69.9214C39.2133 70.4366 38.1236 70.6954 37.0217 70.6748H6.89672C5.12124 70.6748 3.41848 69.9511 2.16303 68.6629C0.907576 67.3747 0.202271 65.6275 0.202271 63.8057C0.202271 61.9839 0.907576 60.2367 2.16303 58.9485C3.41848 57.6603 5.12124 56.9366 6.89672 56.9366H33.4402L44.8542 39.386C45.4919 38.4082 46.3637 37.6148 47.386 37.0819C48.4083 36.549 49.5469 36.2945 50.6926 36.3427C51.8383 36.391 52.9527 36.7404 53.9291 37.3575C54.9054 37.9746 55.7108 38.8387 56.2682 39.8669L67.1467 60.3712L84.6527 29.4602C85.2509 28.3966 86.116 27.517 87.158 26.9129C88.2 26.3089 89.3807 26.0025 90.5773 26.0256C91.7455 26.0329 92.8916 26.3537 93.9016 26.9562C94.9116 27.5588 95.7504 28.422 96.3345 29.4602L112.368 56.9366L119.062 51.51C120.249 50.565 121.711 50.0569 123.213 50.0675H154.174C155.95 50.0675 157.653 50.7912 158.908 52.0794C160.164 53.3676 160.869 55.1148 160.869 56.9366C160.869 58.7584 160.164 60.5056 158.908 61.7938C157.653 63.082 155.95 63.8057 154.174 63.8057H125.556L114.677 72.6325C113.928 73.2652 113.053 73.7231 112.114 73.9744C111.175 74.2258 110.194 74.2646 109.238 74.0882C108.283 73.9117 107.377 73.5243 106.582 72.9527C105.787 72.3811 105.123 71.639 104.636 70.7779L90.5773 46.4269L72.9374 77.5439C72.3504 78.5871 71.5064 79.4536 70.49 80.0564C69.4737 80.6593 68.3207 80.9772 67.1467 80.9785Z" fill="white" fill-opacity="0.2"/>
</g>
<defs>
<filter id="filter0_b_17_162" x="-24.7977" y="1.02441" width="210.667" height="104.954" filterUnits="userSpaceOnUse" color-interpolation-filters="sRGB">
<feFlood flood-opacity="0" result="BackgroundImageFix"/>
<feGaussianBlur in="BackgroundImageFix" stdDeviation="12.5"/>
<feComposite in2="SourceAlpha" operator="in" result="effect1_backgroundBlur_17_162"/>
<feBlend mode="normal" in="SourceGraphic" in2="effect1_backgroundBlur_17_162" result="shape"/>
</filter>
<linearGradient id="paint0_linear_17_162" x1="20.8005" y1="51.9512" x2="141.428" y2="52.5565" gradientUnits="userSpaceOnUse">
<stop stop-color="#FF7070"/>
<stop offset="1" stop-color="#FF7070" stop-opacity="0.65"/>
</linearGradient>
</defs>
</svg>
