<svg width="20" height="20" viewBox="0 0 20 20" fill="none" xmlns="http://www.w3.org/2000/svg">
<path fill-rule="evenodd" clip-rule="evenodd" d="M1.84376 12.0002C3.37757 14.4534 5.97393 17.1614 10.0003 20C14.0267 17.1614 16.6231 14.4534 18.1569 12.0002H15.0005C14.8757 12.0001 14.7538 11.9602 14.6504 11.8856C14.547 11.811 14.4669 11.7051 14.4205 11.5815L12.5992 6.7256L10.6016 14.1828C10.5659 14.3165 10.4919 14.435 10.3899 14.5216C10.2879 14.6083 10.1631 14.6587 10.0329 14.6659C9.90266 14.6731 9.77361 14.6367 9.66377 14.5618C9.55393 14.4869 9.46881 14.3772 9.42031 14.2481L7.36148 8.75756L5.52016 11.7042C5.46299 11.7953 5.38563 11.87 5.29492 11.9217C5.20421 11.9733 5.10296 12.0003 5.00014 12.0002H1.84376ZM1.09873 10.6669C-3.03268 2.24036 5.51266 -2.66621 9.78033 1.52437C9.85533 1.59771 9.92908 1.6737 10.0003 1.75237C10.0709 1.67378 10.1443 1.59816 10.2203 1.52571C14.488 -2.66621 23.0334 2.24036 18.9007 10.6669H15.4218L13.0792 4.41898C13.0307 4.2899 12.9456 4.18022 12.8358 4.1053C12.7259 4.03039 12.5969 3.99398 12.4667 4.00118C12.3365 4.00838 12.2116 4.05883 12.1096 4.14546C12.0077 4.23209 11.9336 4.35057 11.8979 4.48431L9.90158 11.9415L8.08026 7.0856C8.03784 6.97295 7.96739 6.87479 7.87651 6.80172C7.78563 6.72865 7.67777 6.68343 7.56456 6.67094C7.45135 6.65845 7.33709 6.67917 7.23412 6.73087C7.13114 6.78256 7.04335 6.86326 6.98022 6.96426L4.66513 10.6669H1.09998H1.09873Z" fill="#212529"/>
</svg>
