<svg width="550" height="550" viewBox="0 0 550 550" fill="none" xmlns="http://www.w3.org/2000/svg">
<rect width="550" height="550" fill="white"/>
<ellipse cx="222" cy="258.5" rx="123" ry="111.5" fill="#42826C"/>
<path d="M411.514 255.512C411.514 286.041 430.102 313.778 335.782 313.778C241.462 313.778 165 320.61 165 258.5C165 196.39 241.462 203.222 335.782 203.222C411.514 203.222 411.514 224.982 411.514 255.512Z" fill="white"/>
<path d="M240.5 161L260.852 215.75H220.148L240.5 161Z" fill="white"/>
<path d="M170.205 197L188 231.622L174.818 259.202L160.977 284H130L170.205 197Z" fill="white"/>
<path d="M198.405 346.286L177.375 291.793L218.075 291.288L198.405 346.286Z" fill="white"/>
<rect x="82" y="254" width="77" height="30" fill="white"/>
<path d="M208.758 270V236.565H215.823V250.537H228.94V236.565H235.96V270H228.94V255.712H215.823V270H208.758ZM253.689 270.36C249.834 270.36 246.879 269.212 244.824 266.917C242.769 264.622 241.742 261.45 241.742 257.4C241.742 254.97 242.207 252.795 243.137 250.875C244.082 248.955 245.447 247.44 247.232 246.33C249.017 245.205 251.199 244.635 253.779 244.62C255.084 244.605 256.329 244.77 257.514 245.115C258.699 245.46 259.757 246.022 260.687 246.802C261.617 247.567 262.359 248.587 262.914 249.862C263.484 251.122 263.777 252.667 263.792 254.497C263.792 255.412 263.777 256.26 263.747 257.04C263.717 257.82 263.649 258.487 263.544 259.042H245.432L245.882 255.33H257.402C257.477 254.115 257.409 253.05 257.199 252.135C257.004 251.205 256.614 250.485 256.029 249.975C255.444 249.45 254.619 249.187 253.554 249.187C252.519 249.187 251.612 249.472 250.832 250.042C250.067 250.612 249.474 251.595 249.054 252.99C248.649 254.37 248.477 256.275 248.537 258.705C248.597 260.34 248.912 261.652 249.482 262.642C250.067 263.617 250.854 264.322 251.844 264.757C252.849 265.177 254.012 265.387 255.332 265.387C256.052 265.387 256.839 265.327 257.694 265.207C258.549 265.087 259.359 264.93 260.124 264.735C260.889 264.525 261.474 264.315 261.879 264.105L263.027 267.84C262.472 268.29 261.707 268.71 260.732 269.1C259.772 269.475 258.677 269.775 257.447 270C256.232 270.24 254.979 270.36 253.689 270.36ZM275.721 270.36C274.131 270.36 272.736 270.038 271.536 269.392C270.336 268.747 269.399 267.847 268.724 266.693C268.064 265.537 267.734 264.195 267.734 262.665C267.734 261.135 268.146 259.822 268.971 258.727C269.811 257.632 270.944 256.777 272.369 256.162C273.344 255.757 274.409 255.442 275.564 255.217C276.734 254.992 277.896 254.835 279.051 254.745C280.221 254.655 281.309 254.61 282.314 254.61L283.461 256.027L282.314 258.232C281.774 258.232 281.166 258.27 280.491 258.345C279.816 258.42 279.164 258.532 278.534 258.682C277.919 258.817 277.401 258.975 276.981 259.155C276.396 259.425 275.871 259.785 275.406 260.235C274.956 260.685 274.731 261.375 274.731 262.305C274.731 263.52 275.069 264.42 275.744 265.005C276.419 265.575 277.289 265.86 278.354 265.86C278.909 265.86 279.456 265.785 279.996 265.635C280.551 265.485 281.039 265.312 281.459 265.117C281.879 264.907 282.164 264.712 282.314 264.532L283.506 265.95L282.674 267.885C281.999 268.485 281.069 269.047 279.884 269.572C278.714 270.098 277.326 270.36 275.721 270.36ZM289.176 270H282.674V266.265H282.314V252.765C282.314 251.49 281.976 250.657 281.301 250.267C280.626 249.862 279.659 249.66 278.399 249.66C277.454 249.66 276.464 249.742 275.429 249.907C274.409 250.072 273.441 250.29 272.526 250.56C271.611 250.83 270.846 251.122 270.231 251.437L268.746 247.117C269.256 246.817 270.051 246.465 271.131 246.06C272.211 245.655 273.449 245.302 274.844 245.002C276.239 244.687 277.641 244.53 279.051 244.53C281.361 244.53 283.259 244.8 284.744 245.34C286.244 245.88 287.354 246.795 288.074 248.085C288.809 249.375 289.176 251.16 289.176 253.44V270ZM295.872 270V233.437H302.757V270H295.872ZM317.299 270.36C315.769 270.36 314.501 270.113 313.496 269.617C312.506 269.107 311.764 268.305 311.269 267.21C310.789 266.115 310.549 264.667 310.549 262.867V249.637H307.511V245.97C308.621 245.655 309.506 245.355 310.166 245.07C310.841 244.785 311.329 244.29 311.629 243.585C311.779 243.24 311.936 242.835 312.101 242.37C312.281 241.905 312.469 241.402 312.664 240.862C312.859 240.322 313.061 239.775 313.271 239.22H317.411V244.935H324.139V249.637H317.411V259.965C317.411 261.555 317.494 262.717 317.659 263.452C317.824 264.172 318.109 264.637 318.514 264.847C318.919 265.042 319.504 265.14 320.269 265.14C320.659 265.14 321.109 265.095 321.619 265.005C322.129 264.9 322.616 264.772 323.081 264.622C323.546 264.472 323.906 264.315 324.161 264.15L325.061 267.997C324.656 268.357 324.049 268.725 323.239 269.1C322.429 269.46 321.506 269.76 320.471 270C319.436 270.24 318.379 270.36 317.299 270.36ZM329.644 270V233.437H336.506V243.225L336.146 248.377L335.921 247.747C336.476 247.267 337.189 246.787 338.059 246.307C338.944 245.827 339.911 245.422 340.961 245.093C342.011 244.762 343.091 244.59 344.201 244.575C346.931 244.5 348.926 245.257 350.186 246.847C351.461 248.437 352.099 250.972 352.099 254.452V270H345.191V255.24C345.191 253.26 344.906 251.895 344.336 251.145C343.766 250.395 342.776 250.042 341.366 250.087C340.736 250.102 339.964 250.252 339.049 250.537C338.134 250.822 337.286 251.295 336.506 251.955V270H329.644ZM358.194 280.755V275.355C358.449 275.445 358.847 275.535 359.387 275.625C359.942 275.715 360.377 275.76 360.692 275.76C361.412 275.76 362.199 275.625 363.054 275.355C363.924 275.1 364.734 274.515 365.484 273.6C366.234 272.7 366.804 271.29 367.194 269.37L367.509 270H364.539L355.764 244.935H363.077L367.374 259.447L369.399 267.142H368.454L370.277 259.447L373.787 244.935H381.054L372.999 270.653C372.039 273.653 370.862 275.925 369.467 277.47C368.087 279.015 366.594 280.05 364.989 280.575C364.539 280.755 363.962 280.898 363.257 281.003C362.567 281.108 361.959 281.16 361.434 281.16C361.209 281.16 360.857 281.138 360.377 281.093C359.897 281.048 359.432 280.995 358.982 280.935C358.547 280.875 358.284 280.815 358.194 280.755ZM392.932 270V236.565H399.907V264.352H411.99V270H392.932ZM416.946 270V244.957H423.808V270H416.946ZM420.028 241.335C418.918 241.335 417.981 240.99 417.216 240.3C416.451 239.61 416.068 238.71 416.068 237.6C416.068 236.85 416.271 236.167 416.676 235.552C417.096 234.922 417.636 234.42 418.296 234.045C418.971 233.67 419.691 233.482 420.456 233.482C421.686 233.482 422.646 233.835 423.336 234.54C424.041 235.23 424.393 236.122 424.393 237.217C424.393 238.357 423.958 239.332 423.088 240.142C422.233 240.937 421.213 241.335 420.028 241.335ZM432.536 270V249.637H429.184V245.7L432.536 244.935V242.527C432.536 240.697 432.814 239.175 433.369 237.96C433.939 236.73 434.689 235.755 435.619 235.035C436.564 234.315 437.591 233.805 438.701 233.505C439.826 233.19 440.929 233.032 442.009 233.032C443.059 233.032 443.959 233.092 444.709 233.212C445.459 233.332 445.961 233.43 446.216 233.505V238.41C445.871 238.275 445.429 238.162 444.889 238.072C444.349 237.967 443.644 237.915 442.774 237.915C441.799 237.915 440.996 238.267 440.366 238.972C439.751 239.677 439.444 240.795 439.444 242.325V244.935H445.181V249.637H439.444V270H432.536ZM459.749 270.36C455.894 270.36 452.939 269.212 450.884 266.917C448.829 264.622 447.801 261.45 447.801 257.4C447.801 254.97 448.266 252.795 449.196 250.875C450.141 248.955 451.506 247.44 453.291 246.33C455.076 245.205 457.259 244.635 459.839 244.62C461.144 244.605 462.389 244.77 463.574 245.115C464.759 245.46 465.816 246.022 466.746 246.802C467.676 247.567 468.419 248.587 468.974 249.862C469.544 251.122 469.836 252.667 469.851 254.497C469.851 255.412 469.836 256.26 469.806 257.04C469.776 257.82 469.709 258.487 469.604 259.042H451.491L451.941 255.33H463.461C463.536 254.115 463.469 253.05 463.259 252.135C463.064 251.205 462.674 250.485 462.089 249.975C461.504 249.45 460.679 249.187 459.614 249.187C458.579 249.187 457.671 249.472 456.891 250.042C456.126 250.612 455.534 251.595 455.114 252.99C454.709 254.37 454.536 256.275 454.596 258.705C454.656 260.34 454.971 261.652 455.541 262.642C456.126 263.617 456.914 264.322 457.904 264.757C458.909 265.177 460.071 265.387 461.391 265.387C462.111 265.387 462.899 265.327 463.754 265.207C464.609 265.087 465.419 264.93 466.184 264.735C466.949 264.525 467.534 264.315 467.939 264.105L469.086 267.84C468.531 268.29 467.766 268.71 466.791 269.1C465.831 269.475 464.736 269.775 463.506 270C462.291 270.24 461.039 270.36 459.749 270.36Z" fill="black"/>
<ellipse cx="222" cy="258.5" rx="123" ry="111.5" fill="#42826C"/>
<path d="M411.514 255.512C411.514 286.041 430.102 313.778 335.782 313.778C241.462 313.778 165 320.61 165 258.5C165 196.39 241.462 203.222 335.782 203.222C411.514 203.222 411.514 224.982 411.514 255.512Z" fill="white"/>
<path d="M240.5 161L260.852 215.75H220.148L240.5 161Z" fill="white"/>
<path d="M170.205 197L188 231.622L174.818 259.202L160.977 284H130L170.205 197Z" fill="white"/>
<path d="M198.405 346.286L177.375 291.793L218.075 291.288L198.405 346.286Z" fill="white"/>
<rect x="82" y="254" width="77" height="30" fill="white"/>
<path d="M208.758 270V236.565H215.823V250.537H228.94V236.565H235.96V270H228.94V255.712H215.823V270H208.758ZM253.689 270.36C249.834 270.36 246.879 269.212 244.824 266.917C242.769 264.622 241.742 261.45 241.742 257.4C241.742 254.97 242.207 252.795 243.137 250.875C244.082 248.955 245.447 247.44 247.232 246.33C249.017 245.205 251.199 244.635 253.779 244.62C255.084 244.605 256.329 244.77 257.514 245.115C258.699 245.46 259.757 246.022 260.687 246.802C261.617 247.567 262.359 248.587 262.914 249.862C263.484 251.122 263.777 252.667 263.792 254.497C263.792 255.412 263.777 256.26 263.747 257.04C263.717 257.82 263.649 258.487 263.544 259.042H245.432L245.882 255.33H257.402C257.477 254.115 257.409 253.05 257.199 252.135C257.004 251.205 256.614 250.485 256.029 249.975C255.444 249.45 254.619 249.187 253.554 249.187C252.519 249.187 251.612 249.472 250.832 250.042C250.067 250.612 249.474 251.595 249.054 252.99C248.649 254.37 248.477 256.275 248.537 258.705C248.597 260.34 248.912 261.652 249.482 262.642C250.067 263.617 250.854 264.322 251.844 264.757C252.849 265.177 254.012 265.387 255.332 265.387C256.052 265.387 256.839 265.327 257.694 265.207C258.549 265.087 259.359 264.93 260.124 264.735C260.889 264.525 261.474 264.315 261.879 264.105L263.027 267.84C262.472 268.29 261.707 268.71 260.732 269.1C259.772 269.475 258.677 269.775 257.447 270C256.232 270.24 254.979 270.36 253.689 270.36ZM275.721 270.36C274.131 270.36 272.736 270.038 271.536 269.392C270.336 268.747 269.399 267.847 268.724 266.693C268.064 265.537 267.734 264.195 267.734 262.665C267.734 261.135 268.146 259.822 268.971 258.727C269.811 257.632 270.944 256.777 272.369 256.162C273.344 255.757 274.409 255.442 275.564 255.217C276.734 254.992 277.896 254.835 279.051 254.745C280.221 254.655 281.309 254.61 282.314 254.61L283.461 256.027L282.314 258.232C281.774 258.232 281.166 258.27 280.491 258.345C279.816 258.42 279.164 258.532 278.534 258.682C277.919 258.817 277.401 258.975 276.981 259.155C276.396 259.425 275.871 259.785 275.406 260.235C274.956 260.685 274.731 261.375 274.731 262.305C274.731 263.52 275.069 264.42 275.744 265.005C276.419 265.575 277.289 265.86 278.354 265.86C278.909 265.86 279.456 265.785 279.996 265.635C280.551 265.485 281.039 265.312 281.459 265.117C281.879 264.907 282.164 264.712 282.314 264.532L283.506 265.95L282.674 267.885C281.999 268.485 281.069 269.047 279.884 269.572C278.714 270.098 277.326 270.36 275.721 270.36ZM289.176 270H282.674V266.265H282.314V252.765C282.314 251.49 281.976 250.657 281.301 250.267C280.626 249.862 279.659 249.66 278.399 249.66C277.454 249.66 276.464 249.742 275.429 249.907C274.409 250.072 273.441 250.29 272.526 250.56C271.611 250.83 270.846 251.122 270.231 251.437L268.746 247.117C269.256 246.817 270.051 246.465 271.131 246.06C272.211 245.655 273.449 245.302 274.844 245.002C276.239 244.687 277.641 244.53 279.051 244.53C281.361 244.53 283.259 244.8 284.744 245.34C286.244 245.88 287.354 246.795 288.074 248.085C288.809 249.375 289.176 251.16 289.176 253.44V270ZM295.872 270V233.437H302.757V270H295.872ZM317.299 270.36C315.769 270.36 314.501 270.113 313.496 269.617C312.506 269.107 311.764 268.305 311.269 267.21C310.789 266.115 310.549 264.667 310.549 262.867V249.637H307.511V245.97C308.621 245.655 309.506 245.355 310.166 245.07C310.841 244.785 311.329 244.29 311.629 243.585C311.779 243.24 311.936 242.835 312.101 242.37C312.281 241.905 312.469 241.402 312.664 240.862C312.859 240.322 313.061 239.775 313.271 239.22H317.411V244.935H324.139V249.637H317.411V259.965C317.411 261.555 317.494 262.717 317.659 263.452C317.824 264.172 318.109 264.637 318.514 264.847C318.919 265.042 319.504 265.14 320.269 265.14C320.659 265.14 321.109 265.095 321.619 265.005C322.129 264.9 322.616 264.772 323.081 264.622C323.546 264.472 323.906 264.315 324.161 264.15L325.061 267.997C324.656 268.357 324.049 268.725 323.239 269.1C322.429 269.46 321.506 269.76 320.471 270C319.436 270.24 318.379 270.36 317.299 270.36ZM329.644 270V233.437H336.506V243.225L336.146 248.377L335.921 247.747C336.476 247.267 337.189 246.787 338.059 246.307C338.944 245.827 339.911 245.422 340.961 245.093C342.011 244.762 343.091 244.59 344.201 244.575C346.931 244.5 348.926 245.257 350.186 246.847C351.461 248.437 352.099 250.972 352.099 254.452V270H345.191V255.24C345.191 253.26 344.906 251.895 344.336 251.145C343.766 250.395 342.776 250.042 341.366 250.087C340.736 250.102 339.964 250.252 339.049 250.537C338.134 250.822 337.286 251.295 336.506 251.955V270H329.644ZM358.194 280.755V275.355C358.449 275.445 358.847 275.535 359.387 275.625C359.942 275.715 360.377 275.76 360.692 275.76C361.412 275.76 362.199 275.625 363.054 275.355C363.924 275.1 364.734 274.515 365.484 273.6C366.234 272.7 366.804 271.29 367.194 269.37L367.509 270H364.539L355.764 244.935H363.077L367.374 259.447L369.399 267.142H368.454L370.277 259.447L373.787 244.935H381.054L372.999 270.653C372.039 273.653 370.862 275.925 369.467 277.47C368.087 279.015 366.594 280.05 364.989 280.575C364.539 280.755 363.962 280.898 363.257 281.003C362.567 281.108 361.959 281.16 361.434 281.16C361.209 281.16 360.857 281.138 360.377 281.093C359.897 281.048 359.432 280.995 358.982 280.935C358.547 280.875 358.284 280.815 358.194 280.755ZM392.932 270V236.565H399.907V264.352H411.99V270H392.932ZM416.946 270V244.957H423.808V270H416.946ZM420.028 241.335C418.918 241.335 417.981 240.99 417.216 240.3C416.451 239.61 416.068 238.71 416.068 237.6C416.068 236.85 416.271 236.167 416.676 235.552C417.096 234.922 417.636 234.42 418.296 234.045C418.971 233.67 419.691 233.482 420.456 233.482C421.686 233.482 422.646 233.835 423.336 234.54C424.041 235.23 424.393 236.122 424.393 237.217C424.393 238.357 423.958 239.332 423.088 240.142C422.233 240.937 421.213 241.335 420.028 241.335ZM432.536 270V249.637H429.184V245.7L432.536 244.935V242.527C432.536 240.697 432.814 239.175 433.369 237.96C433.939 236.73 434.689 235.755 435.619 235.035C436.564 234.315 437.591 233.805 438.701 233.505C439.826 233.19 440.929 233.032 442.009 233.032C443.059 233.032 443.959 233.092 444.709 233.212C445.459 233.332 445.961 233.43 446.216 233.505V238.41C445.871 238.275 445.429 238.162 444.889 238.072C444.349 237.967 443.644 237.915 442.774 237.915C441.799 237.915 440.996 238.267 440.366 238.972C439.751 239.677 439.444 240.795 439.444 242.325V244.935H445.181V249.637H439.444V270H432.536ZM459.749 270.36C455.894 270.36 452.939 269.212 450.884 266.917C448.829 264.622 447.801 261.45 447.801 257.4C447.801 254.97 448.266 252.795 449.196 250.875C450.141 248.955 451.506 247.44 453.291 246.33C455.076 245.205 457.259 244.635 459.839 244.62C461.144 244.605 462.389 244.77 463.574 245.115C464.759 245.46 465.816 246.022 466.746 246.802C467.676 247.567 468.419 248.587 468.974 249.862C469.544 251.122 469.836 252.667 469.851 254.497C469.851 255.412 469.836 256.26 469.806 257.04C469.776 257.82 469.709 258.487 469.604 259.042H451.491L451.941 255.33H463.461C463.536 254.115 463.469 253.05 463.259 252.135C463.064 251.205 462.674 250.485 462.089 249.975C461.504 249.45 460.679 249.187 459.614 249.187C458.579 249.187 457.671 249.472 456.891 250.042C456.126 250.612 455.534 251.595 455.114 252.99C454.709 254.37 454.536 256.275 454.596 258.705C454.656 260.34 454.971 261.652 455.541 262.642C456.126 263.617 456.914 264.322 457.904 264.757C458.909 265.177 460.071 265.387 461.391 265.387C462.111 265.387 462.899 265.327 463.754 265.207C464.609 265.087 465.419 264.93 466.184 264.735C466.949 264.525 467.534 264.315 467.939 264.105L469.086 267.84C468.531 268.29 467.766 268.71 466.791 269.1C465.831 269.475 464.736 269.775 463.506 270C462.291 270.24 461.039 270.36 459.749 270.36Z" fill="black"/>
</svg>
