<svg width="15" height="15" viewBox="0 0 15 15" fill="none" xmlns="http://www.w3.org/2000/svg">
<path d="M11.0086 9.69676C11.9163 8.45791 12.3229 6.92194 12.1469 5.39615C11.971 3.87036 11.2255 2.46727 10.0596 1.4676C8.89374 0.467925 7.39345 -0.0546141 5.8589 0.00452304C4.32436 0.0636602 2.86872 0.700112 1.78321 1.78655C0.697708 2.87298 0.0623867 4.32928 0.00435596 5.86409C-0.0536748 7.39889 0.469864 8.89902 1.47023 10.0643C2.4706 11.2297 3.87402 11.9743 5.39972 12.1491C6.92542 12.324 8.46088 11.9163 9.69891 11.0075C9.72704 11.045 9.7561 11.0807 9.78985 11.1153L13.3991 14.7251C13.5749 14.901 13.8133 14.9999 14.062 15C14.3107 15.0001 14.5492 14.9014 14.7251 14.7256C14.901 14.5498 14.9999 14.3113 15 14.0625C15.0001 13.8138 14.9014 13.5753 14.7256 13.3993L11.1164 9.78959C11.0828 9.75565 11.0468 9.72525 11.0086 9.69676ZM11.2504 6.09264C11.2504 6.76984 11.1171 7.44041 10.8579 8.06606C10.5988 8.69171 10.219 9.26019 9.74024 9.73904C9.26146 10.2179 8.69306 10.5977 8.0675 10.8569C7.44194 11.116 6.77147 11.2494 6.09436 11.2494C5.41726 11.2494 4.74679 11.116 4.12123 10.8569C3.49566 10.5977 2.92726 10.2179 2.44848 9.73904C1.9697 9.26019 1.5899 8.69171 1.33079 8.06606C1.07167 7.44041 0.938307 6.76984 0.938307 6.09264C0.938307 4.72498 1.48153 3.41333 2.44848 2.44625C3.41543 1.47916 4.72689 0.93586 6.09436 0.93586C7.46183 0.93586 8.7733 1.47916 9.74024 2.44625C10.7072 3.41333 11.2504 4.72498 11.2504 6.09264Z" fill="#353535"/>
</svg>
