<svg width="110" height="109" viewBox="0 0 110 109" fill="none" xmlns="http://www.w3.org/2000/svg">
<path d="M51.182 69.424C59.4999 69.424 66.2429 62.7423 66.2429 54.5001C66.2429 46.2578 59.4999 39.5762 51.182 39.5762C42.8642 39.5762 36.1212 46.2578 36.1212 54.5001C36.1212 62.7423 42.8642 69.424 51.182 69.424Z" stroke="black" stroke-width="1.5" stroke-linecap="round" stroke-linejoin="round"/>
<path d="M48.6704 28.3855H53.6892" stroke="black" stroke-width="1.5" stroke-linecap="round" stroke-linejoin="round"/>
<path d="M51.1821 28.3855V39.5762" stroke="black" stroke-width="1.5" stroke-linecap="round" stroke-linejoin="round"/>
<path d="M68.0396 34.2759L71.5916 37.7911" stroke="black" stroke-width="1.5" stroke-linecap="round" stroke-linejoin="round"/>
<path d="M69.8179 36.0337L61.8291 43.9498" stroke="black" stroke-width="1.5" stroke-linecap="round" stroke-linejoin="round"/>
<path d="M77.5363 52.0112V56.9889" stroke="black" stroke-width="1.5" stroke-linecap="round" stroke-linejoin="round"/>
<path d="M77.5362 54.5H66.2383" stroke="black" stroke-width="1.5" stroke-linecap="round" stroke-linejoin="round"/>
<path d="M71.5916 71.2087L68.0396 74.724" stroke="black" stroke-width="1.5" stroke-linecap="round" stroke-linejoin="round"/>
<path d="M69.8179 72.9664L61.8291 65.0503" stroke="black" stroke-width="1.5" stroke-linecap="round" stroke-linejoin="round"/>
<path d="M53.6892 80.6145H48.6704" stroke="black" stroke-width="1.5" stroke-linecap="round" stroke-linejoin="round"/>
<path d="M51.1821 80.6145V69.4238" stroke="black" stroke-width="1.5" stroke-linecap="round" stroke-linejoin="round"/>
<path d="M34.32 74.724L30.7725 71.2087" stroke="black" stroke-width="1.5" stroke-linecap="round" stroke-linejoin="round"/>
<path d="M32.5463 72.9664L40.5304 65.0503" stroke="black" stroke-width="1.5" stroke-linecap="round" stroke-linejoin="round"/>
<path d="M24.8279 56.9889V52.0112" stroke="black" stroke-width="1.5" stroke-linecap="round" stroke-linejoin="round"/>
<path d="M24.8279 54.5H36.1212" stroke="black" stroke-width="1.5" stroke-linecap="round" stroke-linejoin="round"/>
<path d="M30.7725 37.7911L34.32 34.2759" stroke="black" stroke-width="1.5" stroke-linecap="round" stroke-linejoin="round"/>
<path d="M32.5463 36.0337L40.5304 43.9498" stroke="black" stroke-width="1.5" stroke-linecap="round" stroke-linejoin="round"/>
<path d="M90.3237 80.0469C84.1295 89.4835 74.713 96.3942 63.7975 99.514C52.8821 102.634 41.1979 101.754 30.8834 97.0362C20.5689 92.318 12.314 84.077 7.62961 73.8214C2.94522 63.5658 2.14463 51.9816 5.37438 41.1889C8.60412 30.3963 15.6482 21.1171 25.2173 15.0497C34.7864 8.98229 46.2405 6.53252 57.4833 8.14874C68.726 9.76496 79.0054 15.3391 86.44 23.8509C93.8747 32.3627 97.9672 43.2428 97.9688 54.5V58.7601" stroke="#F49595" stroke-width="1.5" stroke-linecap="round" stroke-linejoin="round"/>
<path d="M89.375 50.2444L97.9688 58.76L106.563 50.2444" stroke="#F49595" stroke-width="1.5" stroke-linecap="round" stroke-linejoin="round"/>
</svg>
