<svg width="97" height="88" viewBox="0 0 97 88" fill="none" xmlns="http://www.w3.org/2000/svg">
<path d="M93.213 75.8341C93.7602 76.8259 94.0187 77.9283 93.9641 79.0363C93.9094 80.1444 93.5433 81.2214 92.9005 82.1649C92.2578 83.1085 91.3598 83.8872 90.2918 84.4272C89.2239 84.9672 88.0215 85.2504 86.7989 85.2501H52.6387C51.4161 85.2504 50.2137 84.9672 49.1457 84.4272C48.0778 83.8872 47.1797 83.1085 46.537 82.1649C45.8943 81.2214 45.5282 80.1444 45.4735 79.0363C45.4188 77.9283 45.6773 76.8259 46.2246 75.8341L63.3046 44.8471C63.8999 43.766 64.8153 42.8568 65.9482 42.2214C67.0811 41.5859 68.3868 41.2493 69.7188 41.2493C71.0507 41.2493 72.3564 41.5859 73.4893 42.2214C74.6222 42.8568 75.5376 43.766 76.1329 44.8471L93.213 75.8341Z" fill="#F49595" stroke="#F49595" stroke-width="1.5" stroke-linecap="round" stroke-linejoin="round"/>
<path d="M16.9064 46.7646H8.73816C7.25038 46.7287 5.83682 46.1673 4.79852 45.1999C3.76021 44.2325 3.1792 42.9356 3.1792 41.5854C3.1792 40.2352 3.76021 38.9383 4.79852 37.971C5.83682 37.0036 7.25038 36.4422 8.73816 36.4062H16.9064" stroke="black" stroke-width="1.5" stroke-linecap="round" stroke-linejoin="round"/>
<path d="M40.1296 15.3375V7.92722C40.1692 6.57747 40.7881 5.29507 41.8544 4.35311C42.9207 3.41114 44.3502 2.88403 45.8385 2.88403C47.3268 2.88403 48.7563 3.41114 49.8226 4.35311C50.8889 5.29507 51.5078 6.57747 51.5473 7.92722V15.3375" stroke="black" stroke-width="1.5" stroke-linecap="round" stroke-linejoin="round"/>
<path d="M62.2618 19.3601C57.4029 16.4059 51.6857 14.8286 45.8365 14.8286C39.9873 14.8286 34.2701 16.4059 29.4111 19.3601" stroke="black" stroke-width="1.5" stroke-linecap="round" stroke-linejoin="round"/>
<path d="M73.914 33.3667C73.0684 30.9972 71.8603 28.7471 70.325 26.6824" stroke="black" stroke-width="1.5" stroke-linecap="round" stroke-linejoin="round"/>
<path d="M29.4111 63.8C31.8489 65.2837 34.5177 66.4282 37.3288 67.1954" stroke="black" stroke-width="1.5" stroke-linecap="round" stroke-linejoin="round"/>
<path d="M21.3401 26.6824C18.0838 31.0905 16.3452 36.2772 16.3452 41.5837C16.3452 46.8902 18.0838 52.0769 21.3401 56.485" stroke="black" stroke-width="1.5" stroke-linecap="round" stroke-linejoin="round"/>
<path d="M27.6774 34.8736C27.6764 33.31 26.9918 31.8107 25.7738 30.7046L18.2603 23.8882C17.1884 22.9158 16.5862 21.5968 16.5862 20.2216C16.5862 18.8463 17.1884 17.5274 18.2603 16.5549C19.3322 15.5825 20.786 15.0361 22.302 15.0361C23.8179 15.0361 25.2717 15.5825 26.3436 16.5549L33.845 23.3822C35.0642 24.4873 36.7169 25.1084 38.4403 25.1092" stroke="black" stroke-width="1.5" stroke-linecap="round" stroke-linejoin="round"/>
<path d="M38.4403 58.0617C37.5867 58.0613 36.7415 58.2137 35.953 58.51C35.1644 58.8064 34.4481 59.2409 33.8449 59.7887L26.3314 66.605C25.2595 67.5775 23.8057 68.1238 22.2898 68.1238C20.7738 68.1238 19.32 67.5775 18.2481 66.605C17.1762 65.6326 16.574 64.3136 16.574 62.9384C16.574 61.5631 17.1762 60.2442 18.2481 59.2717L25.7615 52.4517C26.9794 51.3469 27.664 49.8488 27.6652 48.2864" stroke="black" stroke-width="1.5" stroke-linecap="round" stroke-linejoin="round"/>
<path d="M53.2368 25.1092C54.959 25.1082 56.6104 24.4871 57.8281 23.3822L65.3456 16.5659C66.4176 15.5934 67.8714 15.0471 69.3873 15.0471C70.1379 15.0471 70.8812 15.1812 71.5747 15.4418C72.2681 15.7024 72.8982 16.0844 73.429 16.5659C73.9597 17.0474 74.3808 17.6191 74.668 18.2482C74.9553 18.8773 75.1031 19.5516 75.1031 20.2326C75.1031 20.9135 74.9553 21.5878 74.668 22.217C74.3808 22.8461 73.9597 23.4177 73.429 23.8992L65.9034 30.7046" stroke="black" stroke-width="1.5" stroke-linecap="round" stroke-linejoin="round"/>
<path d="M69.7188 77C68.8817 77 68.2031 76.3844 68.2031 75.625C68.2031 74.8656 68.8817 74.25 69.7188 74.25" stroke="#000001" stroke-width="1.5"/>
<path d="M69.7188 77C70.5558 77 71.2344 76.3844 71.2344 75.625C71.2344 74.8656 70.5558 74.25 69.7188 74.25" stroke="#000001" stroke-width="1.5"/>
<path d="M69.7188 66V55" stroke="black" stroke-width="1.5" stroke-linecap="round" stroke-linejoin="round"/>
</svg>
