<svg width="118" height="109" viewBox="0 0 118 109" fill="none" xmlns="http://www.w3.org/2000/svg">
<path d="M84.8125 93.917C94.1236 93.917 101.672 86.9446 101.672 78.3436C101.672 69.7427 94.1236 62.7703 84.8125 62.7703C75.5014 62.7703 67.9532 69.7427 67.9532 78.3436C67.9532 86.9446 75.5014 93.917 84.8125 93.917Z" stroke="black" stroke-width="1.5" stroke-linecap="round" stroke-linejoin="round"/>
<path d="M82.0051 51.0938H87.62" stroke="black" stroke-width="1.5" stroke-linecap="round" stroke-linejoin="round"/>
<path d="M84.8125 51.0938V62.7704" stroke="black" stroke-width="1.5" stroke-linecap="round" stroke-linejoin="round"/>
<path d="M103.688 57.2385L107.66 60.9082" stroke="black" stroke-width="1.5" stroke-linecap="round" stroke-linejoin="round"/>
<path d="M105.674 59.0735L96.7305 67.3348" stroke="black" stroke-width="1.5" stroke-linecap="round" stroke-linejoin="round"/>
<path d="M114.312 75.7505V80.9371" stroke="black" stroke-width="1.5" stroke-linecap="round" stroke-linejoin="round"/>
<path d="M114.313 78.3438H101.672" stroke="black" stroke-width="1.5" stroke-linecap="round" stroke-linejoin="round"/>
<path d="M107.66 95.7793L103.688 99.449" stroke="black" stroke-width="1.5" stroke-linecap="round" stroke-linejoin="round"/>
<path d="M105.674 97.6141L96.7305 89.3528" stroke="black" stroke-width="1.5" stroke-linecap="round" stroke-linejoin="round"/>
<path d="M87.62 105.594H82.0051" stroke="black" stroke-width="1.5" stroke-linecap="round" stroke-linejoin="round"/>
<path d="M84.8125 105.594V93.9172" stroke="black" stroke-width="1.5" stroke-linecap="round" stroke-linejoin="round"/>
<path d="M65.9374 99.449L61.9647 95.7793" stroke="black" stroke-width="1.5" stroke-linecap="round" stroke-linejoin="round"/>
<path d="M63.951 97.6141L72.8945 89.3528" stroke="black" stroke-width="1.5" stroke-linecap="round" stroke-linejoin="round"/>
<path d="M55.3125 80.9371V75.7505" stroke="black" stroke-width="1.5" stroke-linecap="round" stroke-linejoin="round"/>
<path d="M55.3125 78.3438H67.9533" stroke="black" stroke-width="1.5" stroke-linecap="round" stroke-linejoin="round"/>
<path d="M61.9647 60.9082L65.9374 57.2385" stroke="black" stroke-width="1.5" stroke-linecap="round" stroke-linejoin="round"/>
<path d="M63.951 59.0735L72.8945 67.3348" stroke="black" stroke-width="1.5" stroke-linecap="round" stroke-linejoin="round"/>
<path d="M29.5 30.6562C37.6462 30.6562 44.25 24.5561 44.25 17.0312C44.25 9.50637 37.6462 3.40625 29.5 3.40625C21.3538 3.40625 14.75 9.50637 14.75 17.0312C14.75 24.5561 21.3538 30.6562 29.5 30.6562Z" fill="#D9D9D9" stroke="black" stroke-width="1.5" stroke-linecap="round" stroke-linejoin="round"/>
<path d="M51.8954 49.4496C49.0637 44.8929 44.6823 41.3276 39.4317 39.3075C34.1811 37.2873 28.3552 36.9253 22.8591 38.2778C17.3629 39.6303 12.5041 42.6215 9.0373 46.7868C5.57053 50.9521 3.68989 56.0584 3.6875 61.3124V71.5311H14.75L18.4375 105.594H40.5625L42.1506 90.915" fill="#D9D9D9"/>
<path d="M51.8954 49.4496C49.0637 44.8929 44.6823 41.3276 39.4317 39.3075C34.1811 37.2873 28.3552 36.9253 22.8591 38.2778C17.3629 39.6303 12.5041 42.6215 9.0373 46.7868C5.57053 50.9521 3.68989 56.0584 3.6875 61.3124V71.5311H14.75L18.4375 105.594H40.5625L42.1506 90.915" stroke="black" stroke-width="1.5" stroke-linecap="round" stroke-linejoin="round"/>
</svg>
