<svg width="105" height="95" viewBox="0 0 105 95" fill="none" xmlns="http://www.w3.org/2000/svg">
<path d="M28.4375 92.0313L35 90.3253C35.8065 90.1167 36.6553 90.0787 37.4806 90.2144L44.3362 91.3663C46.8095 91.7834 49.3563 91.6722 51.7737 91.0417L92.1943 80.5205C93.5359 80.1363 94.6586 79.2934 95.3234 78.1714C95.9883 77.0493 96.1426 75.7368 95.7536 74.5133C95.3647 73.2898 94.4631 72.2521 93.241 71.6211C92.0188 70.9901 90.5727 70.8158 89.2106 71.1353L96.9893 69.1086C97.6873 68.9449 98.3419 68.6564 98.9145 68.2601C99.4872 67.8638 99.9664 67.3677 100.324 66.8011C100.681 66.2346 100.909 65.609 100.995 64.9613C101.081 64.3136 101.022 63.6569 100.823 63.03C100.624 62.4031 100.288 61.8187 99.8346 61.3112C99.3816 60.8037 98.8209 60.3835 98.1854 60.0753C97.55 59.7671 96.8527 59.5771 96.1349 59.5167C95.417 59.4563 94.693 59.5265 94.0056 59.7234L96.6 59.0465C97.2949 58.8801 97.9462 58.5899 98.5155 58.1927C99.0848 57.7956 99.5607 57.2996 99.9153 56.7338C100.27 56.168 100.496 55.5438 100.58 54.8979C100.665 54.252 100.606 53.5973 100.407 52.9723C100.208 52.3473 99.8728 51.7646 99.4216 51.2583C98.9703 50.752 98.4119 50.3323 97.7789 50.0239C97.146 49.7155 96.4514 49.5245 95.7358 49.4623C95.0202 49.4 94.2981 49.4677 93.6118 49.6613L88.4275 51.0111C89.769 50.6269 90.8917 49.7841 91.5566 48.662C92.2214 47.54 92.3757 46.2274 91.9868 45.0039C91.5978 43.7804 90.6962 42.7427 89.4741 42.1117C88.2519 41.4807 86.8058 41.3064 85.4437 41.6259L67.2875 46.3521C67.9689 46.1746 68.6049 45.8774 69.1594 45.4775C69.7138 45.0775 70.1758 44.5827 70.5189 44.0213C70.8619 43.4598 71.0794 42.8427 71.1589 42.2052C71.2384 41.5677 71.1784 40.9223 70.9822 40.3058C70.7859 39.6893 70.4575 39.1138 70.0154 38.6121C69.5734 38.1105 69.0265 37.6925 68.4059 37.3821C67.7854 37.0717 67.1033 36.8749 66.3987 36.803C65.6941 36.7311 64.9807 36.7854 64.2993 36.963L44.1 42.2236C41.5412 42.8921 39.2042 44.1215 37.2963 45.8028C35.3884 47.4842 33.9685 49.5654 33.1625 51.8621L30.7125 58.6823C30.4425 59.4481 29.9678 60.1417 29.3305 60.7016C28.6933 61.2616 27.9132 61.6707 27.0593 61.8925L19.46 63.8717" fill="#F49595"/>
<path d="M28.4375 92.0313L35 90.3253C35.8065 90.1167 36.6553 90.0787 37.4806 90.2144L44.3362 91.3663C46.8095 91.7834 49.3563 91.6722 51.7737 91.0417L92.1943 80.5205C93.5359 80.1363 94.6586 79.2934 95.3234 78.1714C95.9883 77.0493 96.1426 75.7368 95.7536 74.5133C95.3647 73.2898 94.4631 72.2521 93.241 71.6211C92.0188 70.9901 90.5727 70.8158 89.2106 71.1353L96.9893 69.1086C97.6873 68.9449 98.3419 68.6564 98.9145 68.2601C99.4872 67.8638 99.9664 67.3677 100.324 66.8011C100.681 66.2346 100.909 65.609 100.995 64.9613C101.081 64.3136 101.022 63.6569 100.823 63.03C100.624 62.4031 100.288 61.8187 99.8346 61.3112C99.3816 60.8037 98.8209 60.3835 98.1854 60.0753C97.55 59.7671 96.8527 59.5771 96.1349 59.5167C95.417 59.4563 94.693 59.5265 94.0056 59.7234L96.6 59.0465C97.2949 58.8801 97.9462 58.5899 98.5155 58.1927C99.0848 57.7956 99.5607 57.2996 99.9153 56.7338C100.27 56.168 100.496 55.5438 100.58 54.8979C100.665 54.252 100.606 53.5973 100.407 52.9723C100.208 52.3473 99.8728 51.7646 99.4216 51.2583C98.9703 50.752 98.4119 50.3323 97.7789 50.0239C97.146 49.7155 96.4514 49.5245 95.7358 49.4623C95.0202 49.4 94.2981 49.4677 93.6118 49.6613L88.4275 51.0111C89.769 50.6269 90.8917 49.7841 91.5566 48.662C92.2214 47.54 92.3757 46.2274 91.9868 45.0039C91.5978 43.7804 90.6962 42.7427 89.4741 42.1117C88.2519 41.4807 86.8058 41.3064 85.4437 41.6259L67.2875 46.3521C67.9689 46.1746 68.6049 45.8774 69.1594 45.4775C69.7138 45.0775 70.1758 44.5827 70.5189 44.0213C70.8619 43.4598 71.0794 42.8427 71.1589 42.2052C71.2384 41.5677 71.1784 40.9223 70.9822 40.3058C70.7859 39.6893 70.4575 39.1138 70.0154 38.6121C69.5734 38.1105 69.0265 37.6925 68.4059 37.3821C67.7854 37.0717 67.1033 36.8749 66.3987 36.803C65.6941 36.7311 64.9807 36.7854 64.2993 36.963L44.1 42.2236C41.5412 42.8921 39.2042 44.1215 37.2963 45.8028C35.3884 47.4842 33.9685 49.5654 33.1625 51.8621L30.7125 58.6823C30.4425 59.4481 29.9678 60.1417 29.3305 60.7016C28.6933 61.2616 27.9132 61.6707 27.0593 61.8925L19.46 63.8717" stroke="black" stroke-width="1.5" stroke-linecap="round" stroke-linejoin="round"/>
<path d="M59.4651 48.3748L67.2482 46.3521" stroke="black" stroke-width="1.5" stroke-linecap="round" stroke-linejoin="round"/>
<path d="M78.4043 63.7728L93.9662 59.7234" stroke="black" stroke-width="1.5" stroke-linecap="round" stroke-linejoin="round"/>
<path d="M75.4207 54.3874L88.3881 51.011" stroke="black" stroke-width="1.5" stroke-linecap="round" stroke-linejoin="round"/>
<path d="M78.7937 73.8348L89.1712 71.1353" stroke="black" stroke-width="1.5" stroke-linecap="round" stroke-linejoin="round"/>
<path d="M98.9581 32.0307L100.424 26.7266L98.2362 16.8307L87.2987 18.8099L85.1112 8.91406L74.1737 10.8932L67.6112 2.97656C63.2362 10.8932 56.9712 15.2157 37.9574 18.2755C19.2718 21.272 8.36932 27.447 4.14307 36.6264L15.0806 38.6055L12.8931 48.5014L19.4556 49.6889" stroke="black" stroke-width="1.5" stroke-linecap="round" stroke-linejoin="round"/>
</svg>
