<svg width="32" height="33" viewBox="0 0 32 33" fill="none" xmlns="http://www.w3.org/2000/svg">
<path d="M27.325 4.79746C25.8513 3.27055 24.0963 2.06 22.1623 1.23637C20.2283 0.412736 18.154 -0.00751629 16.0603 0.000101744C7.28679 0.000101744 0.136615 7.33845 0.128579 16.3474C0.128579 19.2329 0.863887 22.0399 2.25213 24.5252L0 33L8.446 30.7271C10.7825 32.0325 13.4002 32.7167 16.0603 32.7174H16.0683C24.8438 32.7174 31.992 25.3791 32 16.3619C32.002 14.2128 31.5898 12.0846 30.7871 10.0999C29.9844 8.11513 28.8071 6.31305 27.3229 4.79746H27.325ZM16.0603 29.9496C13.6876 29.9504 11.3585 29.2949 9.31793 28.0521L8.83576 27.7551L3.82521 29.1039L5.16323 24.0859L4.84982 23.5682C3.52347 21.4033 2.82199 18.8967 2.82672 16.3392C2.82672 8.86057 8.76745 2.75972 16.0683 2.75972C17.8076 2.75652 19.5303 3.10678 21.1372 3.79033C22.744 4.47387 24.2031 5.47718 25.4304 6.74239C26.662 8.00268 27.6384 9.50082 28.3032 11.1504C28.968 12.8 29.3081 14.5684 29.3039 16.3536C29.2958 23.859 23.3551 29.9496 16.0603 29.9496ZM23.3229 19.7732C22.9272 19.569 20.9724 18.5811 20.6047 18.4409C20.2391 18.3068 19.9719 18.2367 19.7107 18.645C19.4435 19.0514 18.6801 19.9774 18.451 20.2435C18.222 20.5178 17.9849 20.5487 17.5871 20.3466C17.1914 20.1404 15.9076 19.7114 14.3887 18.315C13.2034 17.2322 12.4098 15.8916 12.1728 15.4853C11.9437 15.0769 12.1507 14.8583 12.3496 14.6541C12.5244 14.4726 12.7453 14.1756 12.9442 13.9405C13.1451 13.7054 13.2114 13.5321 13.342 13.2599C13.4726 12.9835 13.4103 12.7484 13.3119 12.5442C13.2114 12.34 12.4179 10.3249 12.0824 9.51232C11.7609 8.71001 11.4334 8.82139 11.1883 8.81107C10.9593 8.79664 10.6921 8.79664 10.4249 8.79664C10.2231 8.80178 10.0246 8.8497 9.84167 8.93736C9.65878 9.02503 9.49552 9.15056 9.36213 9.30607C8.99648 9.71445 7.97388 10.7024 7.97388 12.7174C7.97388 14.7325 9.4003 16.6692 9.6012 16.9435C9.79809 17.2178 12.4018 21.3407 16.3978 23.1145C17.342 23.5373 18.0854 23.7868 18.666 23.9766C19.6203 24.2901 20.4822 24.2427 21.1693 24.1416C21.9327 24.022 23.5218 23.1516 23.8574 22.1967C24.1868 21.2397 24.1868 20.4229 24.0864 20.2517C23.9879 20.0785 23.7207 19.9774 23.3229 19.7732Z" fill="black"/>
</svg>
